<svg width="20" height="20" viewBox="0 0 20 20" fill="none" xmlns="http://www.w3.org/2000/svg">
<g clip-path="url(#clip0_332_22)">
<mask id="mask0_332_22" style="mask-type:luminance" maskUnits="userSpaceOnUse" x="0" y="-1" width="20" height="21">
<path d="M0 -0.000488281H20V19.9995H0V-0.000488281Z" fill="white"/>
</mask>
<g mask="url(#mask0_332_22)">
<path d="M14.243 15.2425C13.1177 16.3678 11.5914 17 9.99999 17C8.40856 17 6.8823 16.3678 5.75699 15.2425C4.63168 14.1172 3.99948 12.5909 3.99948 10.9995C3.99948 9.40808 4.63168 7.88183 5.75699 6.75651C5.75699 8.99951 5.99999 10.9995 8.99999 11.9995C8.99999 9.99951 9.99999 3.99951 11.5 2.99951C12.5 4.99951 13.071 5.58551 14.242 6.75651C14.8001 7.31303 15.2428 7.97438 15.5445 8.70254C15.8462 9.43071 16.001 10.2113 16 10.9995C16.0011 11.7876 15.8464 12.5682 15.5449 13.2963C15.2434 14.0245 14.8009 14.6859 14.243 15.2425Z" fill="#F7A93D" stroke="#2C2B2B" stroke-width="2" stroke-linecap="round" stroke-linejoin="round"/>
<path d="M7.879 15.1205C8.15574 15.407 8.48678 15.6356 8.85279 15.7928C9.2188 15.95 9.61246 16.0328 10.0108 16.0363C10.4091 16.0397 10.8042 15.9638 11.1729 15.813C11.5416 15.6621 11.8765 15.4394 12.1582 15.1577C12.4399 14.876 12.6626 14.5411 12.8135 14.1724C12.9643 13.8037 13.0402 13.4086 13.0368 13.0103C13.0333 12.612 12.9505 12.2183 12.7933 11.8523C12.6361 11.4863 12.4075 11.1553 12.121 10.8785C11.536 10.2925 11.25 9.99951 10.75 8.99951C10 9.49951 9.5 12.4995 9.5 13.4995C7.879 13.4995 7 12.9995 7 12.9995C7 13.7675 7.293 14.5355 7.879 15.1205Z" fill="#F7A93D"/>
</g>
</g>
<defs>
<clipPath id="clip0_332_22">
<rect width="20" height="20" fill="white" transform="translate(0 -0.000488281)"/>
</clipPath>
</defs>
</svg>
