<svg width="16" height="16" viewBox="0 0 16 16" fill="none" xmlns="http://www.w3.org/2000/svg">
    <path
        d="M4.40941 0.666547C4.37816 0.666547 4.34378 0.666547 4.31253 0.669672C4.16566 0.676234 4.01878 0.695609 3.88128 0.727172C3.32816 0.853422 2.87753 1.16905 2.62253 1.64123C2.36722 2.11342 2.29691 2.75717 2.57378 3.58123C2.93628 4.65936 3.24378 5.74998 3.58753 6.82811C3.73128 6.67498 3.90941 6.53436 4.12191 6.41873L4.39066 6.91248C3.62191 7.33123 3.53753 8.01561 3.73441 8.53436C3.83441 8.79373 4.00941 8.99373 4.19691 9.08748C4.38441 9.17811 4.57816 9.18748 4.83128 9.02498L5.13128 9.49998C4.98128 9.59373 4.82503 9.65623 4.66878 9.68436C5.38441 11.2156 6.35628 12.6719 7.88128 13.9656V13.9687C8.32191 14.3437 8.74378 14.6281 9.14691 14.8375C9.10316 14.6625 9.08128 14.4656 9.08753 14.25L9.65003 14.2687C9.63753 14.6875 9.74691 14.9437 9.89378 15.1031C10.0375 15.2625 10.2282 15.3344 10.4282 15.3344C10.8313 15.3312 11.2375 15.0531 11.2219 14.4875L11.7844 14.4687C11.7938 14.7594 11.7188 15.0125 11.5938 15.225C12 15.1219 12.3532 14.9281 12.6469 14.6875C13.1469 14.2781 13.4719 13.7062 13.5719 13.1469C13.6594 12.6406 13.5688 12.1562 13.2688 11.775C13.1875 11.8937 13.0875 12.0094 12.9719 12.125L12.5782 11.7187C12.8813 11.4281 12.9813 11.1656 12.9907 10.9531C12.9969 10.7375 12.9125 10.5531 12.7657 10.4125C12.475 10.1344 11.9907 10.05 11.6063 10.4656L11.1938 10.0844C11.3032 9.96561 11.4219 9.87186 11.5469 9.80311C9.77191 7.55624 8.86566 5.53436 7.40316 2.74061C7.30941 2.91155 7.17816 3.08061 7.01253 3.24373L6.61878 2.83811C6.92191 2.54717 7.02191 2.28467 7.03128 2.06998C7.03753 1.85561 6.95316 1.67186 6.80628 1.53217C6.51566 1.25248 6.03128 1.16686 5.64691 1.58373L5.23441 1.20248C5.34378 1.08436 5.46253 0.991234 5.58753 0.920922C5.19066 0.745609 4.78753 0.664359 4.40941 0.666547ZM3.80628 3.71873L4.35003 3.85623C4.24691 4.26248 4.30003 4.54061 4.40628 4.72498C4.51253 4.91248 4.68128 5.02186 4.87816 5.06561C5.27191 5.14998 5.73128 4.96561 5.84066 4.40936L6.39066 4.51561C6.22816 5.36248 5.43441 5.75936 4.76253 5.61561C4.42503 5.54373 4.10628 5.33748 3.91878 5.00623C3.72816 4.67186 3.67503 4.23123 3.80628 3.71873ZM9.96878 6.30623C9.95003 6.30623 9.93128 6.30936 9.90941 6.30936C10.1375 6.71873 10.3719 7.11561 10.6188 7.50936C10.6625 7.45311 10.6938 7.39373 10.7157 7.33436C10.7938 7.13436 10.7719 6.93436 10.6813 6.75311C10.55 6.49686 10.2907 6.29998 9.96878 6.30623ZM9.22816 10.0344C9.45316 10.4781 9.43753 10.9125 9.23441 11.2125C9.03128 11.5125 8.69691 11.6625 8.36253 11.7031C8.02816 11.7437 7.67503 11.6781 7.40316 11.4594C7.13441 11.2406 6.99378 10.8406 7.10628 10.4062L7.65003 10.55C7.57816 10.8219 7.64378 10.9281 7.75628 11.0219C7.87191 11.1156 8.08753 11.1687 8.29378 11.1437C8.50316 11.1187 8.68441 11.0219 8.76878 10.8969C8.85003 10.775 8.88753 10.6094 8.72816 10.2906L9.22816 10.0344ZM6.89691 13.8281C6.83128 14.0031 6.81878 14.1531 6.83753 14.2812C6.86878 14.4937 6.98753 14.6594 7.15628 14.7719C7.40316 14.9344 7.74066 14.9781 8.02191 14.7906C7.85316 14.6687 7.68753 14.5375 7.51878 14.3937C7.30003 14.2094 7.09378 14.0187 6.89691 13.8281Z"
        fill="black" />
</svg>