<svg width="31" height="31" viewBox="0 0 31 31" fill="none" xmlns="http://www.w3.org/2000/svg">
<g clip-path="url(#clip0_370_11)">
<path d="M23.9171 0.0419922H7.97961C4.09636 0.0419922 0.948364 3.18999 0.948364 7.07324V23.0107C0.948364 26.894 4.09636 30.042 7.97961 30.042H23.9171C27.8004 30.042 30.9484 26.894 30.9484 23.0107V7.07324C30.9484 3.18999 27.8004 0.0419922 23.9171 0.0419922Z" fill="#F4F2ED"/>
<path d="M10.8794 13.1624C10.8794 13.4477 10.9103 13.6789 10.9642 13.8486C11.0327 14.0394 11.1152 14.2249 11.211 14.4037C11.2495 14.4653 11.2649 14.527 11.2649 14.581C11.2649 14.6581 11.2186 14.7352 11.1184 14.8122L10.6326 15.1361C10.5633 15.1823 10.4939 15.2055 10.4323 15.2055C10.3551 15.2055 10.278 15.1669 10.2009 15.0975C10.0971 14.9859 10.0041 14.8646 9.92342 14.7352C9.83726 14.587 9.7575 14.4353 9.68436 14.2803C9.08307 14.9896 8.32745 15.3442 7.41772 15.3442C6.77014 15.3442 6.25358 15.1592 5.87577 14.7891C5.49807 14.419 5.3053 13.9257 5.3053 13.3089C5.3053 12.6535 5.53663 12.1216 6.0069 11.7207C6.47717 11.3198 7.10167 11.1193 7.89573 11.1193C8.15788 11.1193 8.42776 11.1425 8.71299 11.181C8.99823 11.2196 9.2912 11.2812 9.59963 11.3506V10.7877C9.59963 10.2018 9.47624 9.79316 9.23729 9.55422C8.99049 9.31516 8.57424 9.19961 7.98057 9.19961C7.71069 9.19961 7.43319 9.23043 7.14795 9.2998C6.8626 9.36918 6.5851 9.45402 6.31522 9.56195C6.22757 9.60117 6.13746 9.63464 6.04545 9.66215C5.99155 9.67762 5.95288 9.68535 5.92206 9.68535C5.81424 9.68535 5.7601 9.60824 5.7601 9.44629V9.06848C5.7601 8.9452 5.77557 8.85262 5.81413 8.79871C5.85268 8.7448 5.92206 8.69078 6.02999 8.63676C6.29987 8.49801 6.62366 8.38246 7.00147 8.28988C7.37916 8.18957 7.78006 8.1434 8.20416 8.1434C9.12163 8.1434 9.79229 8.35152 10.2241 8.76777C10.6481 9.18414 10.864 9.81637 10.864 10.6645V13.1624H10.8794ZM7.74936 14.3343C8.00366 14.3343 8.26581 14.288 8.54342 14.1954C8.82092 14.103 9.0676 13.9333 9.27584 13.7021C9.39913 13.5556 9.4917 13.3936 9.53788 13.2086C9.58416 13.0236 9.61499 12.8 9.61499 12.5379V12.214C9.38121 12.1572 9.14443 12.1134 8.90577 12.083C8.66537 12.0525 8.42329 12.037 8.18096 12.0367C7.6644 12.0367 7.2867 12.137 7.03229 12.3452C6.77788 12.5533 6.65448 12.8463 6.65448 13.2318C6.65448 13.5941 6.74706 13.8639 6.93971 14.0489C7.12487 14.2417 7.39475 14.3343 7.74936 14.3343ZM13.94 15.1669C13.8013 15.1669 13.7087 15.1437 13.6471 15.0898C13.5854 15.0435 13.5314 14.9356 13.4852 14.7891L11.6735 8.82953C11.6271 8.67531 11.604 8.57512 11.604 8.52109C11.604 8.39781 11.6656 8.32832 11.789 8.32832H12.5446C12.691 8.32832 12.7914 8.35152 12.8453 8.40543C12.9069 8.45172 12.9532 8.55965 12.9995 8.70613L14.2946 13.81L15.4974 8.70613C15.536 8.55191 15.5822 8.45184 15.6439 8.40543C15.7056 8.35926 15.8135 8.32844 15.9523 8.32844H16.569C16.7155 8.32844 16.8158 8.35152 16.8774 8.40543C16.9391 8.45172 16.9931 8.55965 17.0239 8.70613L18.2421 13.8716L19.5758 8.70613C19.6221 8.55191 19.6761 8.45184 19.73 8.40543C19.7917 8.35926 19.892 8.32844 20.0307 8.32844H20.7477C20.8711 8.32844 20.9405 8.39008 20.9405 8.52109C20.9405 8.55977 20.9327 8.5982 20.925 8.64449C20.9174 8.69078 20.9019 8.7523 20.8711 8.83727L19.0131 14.7968C18.9668 14.9511 18.9128 15.0512 18.8511 15.0975C18.7895 15.1437 18.6892 15.1746 18.5581 15.1746H17.8951C17.7486 15.1746 17.6484 15.1514 17.5868 15.0975C17.525 15.0435 17.4711 14.9433 17.4403 14.7891L16.2452 9.81637L15.058 14.7814C15.0194 14.9356 14.9731 15.0358 14.9115 15.0898C14.8498 15.1437 14.7418 15.1669 14.6031 15.1669H13.94ZM23.8471 15.375C23.4462 15.375 23.0453 15.3288 22.6597 15.2363C22.2743 15.1437 21.9736 15.0435 21.7731 14.9279C21.6498 14.8585 21.5649 14.7814 21.5341 14.712C21.5041 14.644 21.4884 14.5705 21.4878 14.4961V14.103C21.4878 13.941 21.5495 13.8639 21.6651 13.8639C21.7114 13.8639 21.7577 13.8716 21.8039 13.8871C21.8502 13.9025 21.9196 13.9333 21.9967 13.9642C22.269 14.0839 22.5533 14.1744 22.8448 14.234C23.1467 14.2953 23.4541 14.3263 23.7622 14.3266C24.248 14.3266 24.6257 14.2417 24.8878 14.0721C25.1499 13.9025 25.2887 13.6558 25.2887 13.3397C25.2887 13.1239 25.2193 12.9464 25.0806 12.8C24.9418 12.6535 24.6797 12.5225 24.3019 12.3991L23.184 12.0522C22.6212 11.8749 22.2048 11.6127 21.9504 11.2659C21.696 10.9266 21.5649 10.5487 21.5649 10.1479C21.5649 9.8241 21.6343 9.53887 21.7731 9.29207C21.9118 9.04539 22.0969 8.82953 22.3282 8.65996C22.5595 8.48254 22.8217 8.35152 23.13 8.25894C23.4384 8.16637 23.7622 8.12793 24.1015 8.12793C24.271 8.12793 24.4483 8.13566 24.618 8.15875C24.7953 8.18184 24.9572 8.21266 25.1191 8.24359C25.2733 8.28215 25.4198 8.3207 25.5586 8.36699C25.6973 8.41316 25.8053 8.45945 25.8824 8.50574C25.9903 8.56738 26.0674 8.62902 26.1137 8.6984C26.1599 8.76016 26.1831 8.84488 26.1831 8.95293V9.31527C26.1831 9.47711 26.1214 9.56195 26.0058 9.56195C25.944 9.56195 25.8438 9.53113 25.7128 9.46937C25.2733 9.26898 24.7799 9.16879 24.2325 9.16879C23.793 9.16879 23.4462 9.23816 23.2071 9.38465C22.9681 9.53113 22.8448 9.75473 22.8448 10.0708C22.8448 10.2866 22.9219 10.4717 23.0761 10.6182C23.2302 10.7646 23.5155 10.9111 23.9242 11.0421L25.0189 11.389C25.5739 11.5664 25.9749 11.8131 26.2139 12.1293C26.4528 12.4454 26.5685 12.8077 26.5685 13.2086C26.5685 13.5401 26.4991 13.8408 26.3681 14.103C26.2294 14.3651 26.0443 14.5963 25.8053 14.7814C25.5663 14.9741 25.281 15.1129 24.9496 15.2132C24.6026 15.3211 24.2402 15.375 23.8471 15.375Z" fill="#252F3E"/>
<path fill-rule="evenodd" clip-rule="evenodd" d="M25.3043 19.1218C22.7677 20.9953 19.0825 21.9899 15.9138 21.9899C11.4731 21.9899 7.4716 20.3476 4.44945 17.6184C4.21039 17.4025 4.42637 17.1096 4.7116 17.2792C7.98055 19.1757 12.0127 20.3245 16.1837 20.3245C18.9977 20.3245 22.0893 19.7386 24.9342 18.5359C25.3582 18.3431 25.7205 18.8134 25.3043 19.1218Z" fill="#FF9900"/>
<path fill-rule="evenodd" clip-rule="evenodd" d="M26.3605 17.9194C26.0367 17.503 24.2172 17.7189 23.3922 17.8191C23.1455 17.85 23.107 17.634 23.3306 17.4722C24.7799 16.4545 27.1623 16.7475 27.4399 17.0866C27.7174 17.4336 27.3628 19.8159 26.0058 20.957C25.7976 21.1343 25.5972 21.0417 25.6897 20.8105C25.9981 20.0473 26.6842 18.3279 26.3605 17.9194Z" fill="#FF9900"/>
</g>
<defs>
<clipPath id="clip0_370_11">
<rect width="30" height="30" fill="white" transform="translate(0.948364 0.0419922)"/>
</clipPath>
</defs>
</svg>
