<svg width="613" height="76" viewBox="0 0 613 76" fill="none" xmlns="http://www.w3.org/2000/svg">
<mask id="path-1-outside-1_529_2" maskUnits="userSpaceOnUse" x="0.000366211" y="-0.111328" width="613" height="76" fill="black">
<rect fill="white" x="0.000366211" y="-0.111328" width="613" height="76"/>
<path d="M20.3684 17.6487V31.2807H42.3524V43.9527H20.3684V58.7367H45.2324V71.8887H3.95237V4.49667H45.2324V17.6487H20.3684ZM101.97 71.8887L88.2419 51.2487L76.1459 71.8887H57.5219L79.1219 37.6167L57.0419 4.49667H76.1459L89.6819 24.8487L101.586 4.49667H120.21L98.8019 38.4807L121.074 71.8887H101.97ZM185.475 26.1927C185.475 30.0967 184.579 33.6807 182.787 36.9447C180.995 40.1447 178.243 42.7367 174.531 44.7207C170.819 46.7047 166.211 47.6967 160.707 47.6967H150.531V71.8887H134.115V4.49667H160.707C166.083 4.49667 170.627 5.42467 174.339 7.28067C178.051 9.13667 180.835 11.6967 182.691 14.9607C184.547 18.2247 185.475 21.9687 185.475 26.1927ZM159.459 34.6407C162.595 34.6407 164.931 33.9047 166.467 32.4327C168.003 30.9607 168.771 28.8807 168.771 26.1927C168.771 23.5047 168.003 21.4247 166.467 19.9527C164.931 18.4807 162.595 17.7447 159.459 17.7447H150.531V34.6407H159.459ZM215.237 17.6487V31.2807H237.221V43.9527H215.237V58.7367H240.101V71.8887H198.821V4.49667H240.101V17.6487H215.237ZM289.927 71.8887L275.911 46.4487H271.975V71.8887H255.559V4.49667H283.111C288.423 4.49667 292.935 5.42467 296.647 7.28067C300.423 9.13667 303.239 11.6967 305.095 14.9607C306.951 18.1607 307.879 21.7447 307.879 25.7127C307.879 30.1927 306.599 34.1927 304.039 37.7127C301.543 41.2327 297.831 43.7287 292.903 45.2007L308.455 71.8887H289.927ZM271.975 34.8327H282.151C285.159 34.8327 287.399 34.0967 288.871 32.6247C290.407 31.1527 291.175 29.0727 291.175 26.3847C291.175 23.8247 290.407 21.8087 288.871 20.3367C287.399 18.8647 285.159 18.1287 282.151 18.1287H271.975V34.8327ZM339.4 4.49667V71.8887H322.984V4.49667H339.4ZM372.512 17.6487V31.2807H394.496V43.9527H372.512V58.7367H397.376V71.8887H356.096V4.49667H397.376V17.6487H372.512ZM473.122 71.8887H456.706L429.25 30.3207V71.8887H412.834V4.49667H429.25L456.706 46.2567V4.49667H473.122V71.8887ZM487.037 38.0967C487.037 31.4407 488.477 25.5207 491.357 20.3367C494.237 15.0887 498.237 11.0247 503.357 8.14467C508.541 5.20067 514.397 3.72867 520.925 3.72867C528.925 3.72867 535.773 5.84067 541.469 10.0647C547.165 14.2887 550.973 20.0487 552.893 27.3447H534.845C533.501 24.5287 531.581 22.3847 529.085 20.9127C526.653 19.4407 523.869 18.7047 520.733 18.7047C515.677 18.7047 511.581 20.4647 508.445 23.9847C505.309 27.5047 503.741 32.2087 503.741 38.0967C503.741 43.9847 505.309 48.6887 508.445 52.2087C511.581 55.7287 515.677 57.4887 520.733 57.4887C523.869 57.4887 526.653 56.7527 529.085 55.2807C531.581 53.8087 533.501 51.6647 534.845 48.8487H552.893C550.973 56.1447 547.165 61.9047 541.469 66.1287C535.773 70.2887 528.925 72.3687 520.925 72.3687C514.397 72.3687 508.541 70.9287 503.357 68.0487C498.237 65.1047 494.237 61.0407 491.357 55.8567C488.477 50.6727 487.037 44.7527 487.037 38.0967ZM584.162 17.6487V31.2807H606.146V43.9527H584.162V58.7367H609.026V71.8887H567.746V4.49667H609.026V17.6487H584.162Z"/>
</mask>
<path d="M20.3684 17.6487V14.6487H17.3684V17.6487H20.3684ZM20.3684 31.2807H17.3684V34.2807H20.3684V31.2807ZM42.3524 31.2807H45.3524V28.2807H42.3524V31.2807ZM42.3524 43.9527V46.9527H45.3524V43.9527H42.3524ZM20.3684 43.9527V40.9527H17.3684V43.9527H20.3684ZM20.3684 58.7367H17.3684V61.7367H20.3684V58.7367ZM45.2324 58.7367H48.2324V55.7367H45.2324V58.7367ZM45.2324 71.8887V74.8887H48.2324V71.8887H45.2324ZM3.95237 71.8887H0.952366V74.8887H3.95237V71.8887ZM3.95237 4.49667V1.49667H0.952366V4.49667H3.95237ZM45.2324 4.49667H48.2324V1.49667H45.2324V4.49667ZM45.2324 17.6487V20.6487H48.2324V17.6487H45.2324ZM17.3684 17.6487V31.2807H23.3684V17.6487H17.3684ZM20.3684 34.2807H42.3524V28.2807H20.3684V34.2807ZM39.3524 31.2807V43.9527H45.3524V31.2807H39.3524ZM42.3524 40.9527H20.3684V46.9527H42.3524V40.9527ZM17.3684 43.9527V58.7367H23.3684V43.9527H17.3684ZM20.3684 61.7367H45.2324V55.7367H20.3684V61.7367ZM42.2324 58.7367V71.8887H48.2324V58.7367H42.2324ZM45.2324 68.8887H3.95237V74.8887H45.2324V68.8887ZM6.95237 71.8887V4.49667H0.952366V71.8887H6.95237ZM3.95237 7.49667H45.2324V1.49667H3.95237V7.49667ZM42.2324 4.49667V17.6487H48.2324V4.49667H42.2324ZM45.2324 14.6487H20.3684V20.6487H45.2324V14.6487ZM101.97 71.8887L99.4719 73.5501L100.362 74.8887H101.97V71.8887ZM88.2419 51.2487L90.7398 49.5873L88.081 45.5898L85.6536 49.7318L88.2419 51.2487ZM76.1459 71.8887V74.8887H77.8649L78.7341 73.4055L76.1459 71.8887ZM57.5219 71.8887L54.9839 70.2891L52.085 74.8887H57.5219V71.8887ZM79.1219 37.6167L81.6599 39.2162L82.6969 37.5708L81.618 35.9526L79.1219 37.6167ZM57.0419 4.49667V1.49667H51.4363L54.5457 6.16077L57.0419 4.49667ZM76.1459 4.49667L78.6438 2.83529L77.7535 1.49667H76.1459V4.49667ZM89.6819 24.8487L87.1839 26.5101L89.8452 30.5114L92.2714 26.3633L89.6819 24.8487ZM101.586 4.49667V1.49667H99.8651L98.9963 2.98202L101.586 4.49667ZM120.21 4.49667L122.748 6.09568L125.645 1.49667H120.21V4.49667ZM98.8019 38.4807L96.2635 36.8817L95.2271 38.5269L96.3057 40.1448L98.8019 38.4807ZM121.074 71.8887V74.8887H126.679L123.57 70.2246L121.074 71.8887ZM104.468 70.2273L90.7398 49.5873L85.7439 52.9101L99.4719 73.5501L104.468 70.2273ZM85.6536 49.7318L73.5576 70.3718L78.7341 73.4055L90.8301 52.7655L85.6536 49.7318ZM76.1459 68.8887H57.5219V74.8887H76.1459V68.8887ZM60.0599 73.4882L81.6599 39.2162L76.5839 36.0171L54.9839 70.2891L60.0599 73.4882ZM81.618 35.9526L59.538 2.83257L54.5457 6.16077L76.6257 39.2808L81.618 35.9526ZM57.0419 7.49667H76.1459V1.49667H57.0419V7.49667ZM73.6479 6.15805L87.1839 26.5101L92.1798 23.1873L78.6438 2.83529L73.6479 6.15805ZM92.2714 26.3633L104.175 6.01132L98.9963 2.98202L87.0923 23.334L92.2714 26.3633ZM101.586 7.49667H120.21V1.49667H101.586V7.49667ZM117.672 2.89766L96.2635 36.8817L101.34 40.0797L122.748 6.09568L117.672 2.89766ZM96.3057 40.1448L118.578 73.5528L123.57 70.2246L101.298 36.8166L96.3057 40.1448ZM121.074 68.8887H101.97V74.8887H121.074V68.8887ZM182.787 36.9447L185.404 38.4105L185.411 38.3995L185.417 38.3884L182.787 36.9447ZM174.531 44.7207L173.117 42.0749L173.117 42.0749L174.531 44.7207ZM150.531 47.6967V44.6967H147.531V47.6967H150.531ZM150.531 71.8887V74.8887H153.531V71.8887H150.531ZM134.115 71.8887H131.115V74.8887H134.115V71.8887ZM134.115 4.49667V1.49667H131.115V4.49667H134.115ZM174.339 7.28067L175.681 4.59739L175.681 4.59739L174.339 7.28067ZM150.531 17.7447V14.7447H147.531V17.7447H150.531ZM150.531 34.6407H147.531V37.6407H150.531V34.6407ZM182.475 26.1927C182.475 29.6173 181.694 32.701 180.157 35.5009L185.417 38.3884C187.463 34.6603 188.475 30.5761 188.475 26.1927H182.475ZM180.169 35.4789C178.697 38.108 176.4 40.3203 173.117 42.0749L175.945 47.3665C180.086 45.1531 183.293 42.1813 185.404 38.4105L180.169 35.4789ZM173.117 42.0749C169.953 43.7658 165.864 44.6967 160.707 44.6967V50.6967C166.557 50.6967 171.685 49.6436 175.945 47.3665L173.117 42.0749ZM160.707 44.6967H150.531V50.6967H160.707V44.6967ZM147.531 47.6967V71.8887H153.531V47.6967H147.531ZM150.531 68.8887H134.115V74.8887H150.531V68.8887ZM137.115 71.8887V4.49667H131.115V71.8887H137.115ZM134.115 7.49667H160.707V1.49667H134.115V7.49667ZM160.707 7.49667C165.75 7.49667 169.806 8.36845 172.997 9.96395L175.681 4.59739C171.448 2.48088 166.416 1.49667 160.707 1.49667V7.49667ZM172.997 9.96395C176.236 11.5832 178.551 13.7502 180.083 16.4436L185.299 13.4778C183.118 9.64317 179.866 6.6901 175.681 4.59739L172.997 9.96395ZM180.083 16.4436C181.651 19.2013 182.475 22.4224 182.475 26.1927H188.475C188.475 21.515 187.443 17.248 185.299 13.4778L180.083 16.4436ZM159.459 37.6407C163.006 37.6407 166.232 36.8129 168.543 34.5986L164.391 30.2667C163.63 30.9964 162.184 31.6407 159.459 31.6407V37.6407ZM168.543 34.5986C170.816 32.4202 171.771 29.4701 171.771 26.1927H165.771C165.771 28.2912 165.19 29.5011 164.391 30.2667L168.543 34.5986ZM171.771 26.1927C171.771 22.9152 170.816 19.9651 168.543 17.7867L164.391 22.1186C165.19 22.8842 165.771 24.0941 165.771 26.1927H171.771ZM168.543 17.7867C166.232 15.5724 163.006 14.7447 159.459 14.7447V20.7447C162.184 20.7447 163.63 21.3889 164.391 22.1186L168.543 17.7867ZM159.459 14.7447H150.531V20.7447H159.459V14.7447ZM147.531 17.7447V34.6407H153.531V17.7447H147.531ZM150.531 37.6407H159.459V31.6407H150.531V37.6407ZM215.237 17.6487V14.6487H212.237V17.6487H215.237ZM215.237 31.2807H212.237V34.2807H215.237V31.2807ZM237.221 31.2807H240.221V28.2807H237.221V31.2807ZM237.221 43.9527V46.9527H240.221V43.9527H237.221ZM215.237 43.9527V40.9527H212.237V43.9527H215.237ZM215.237 58.7367H212.237V61.7367H215.237V58.7367ZM240.101 58.7367H243.101V55.7367H240.101V58.7367ZM240.101 71.8887V74.8887H243.101V71.8887H240.101ZM198.821 71.8887H195.821V74.8887H198.821V71.8887ZM198.821 4.49667V1.49667H195.821V4.49667H198.821ZM240.101 4.49667H243.101V1.49667H240.101V4.49667ZM240.101 17.6487V20.6487H243.101V17.6487H240.101ZM212.237 17.6487V31.2807H218.237V17.6487H212.237ZM215.237 34.2807H237.221V28.2807H215.237V34.2807ZM234.221 31.2807V43.9527H240.221V31.2807H234.221ZM237.221 40.9527H215.237V46.9527H237.221V40.9527ZM212.237 43.9527V58.7367H218.237V43.9527H212.237ZM215.237 61.7367H240.101V55.7367H215.237V61.7367ZM237.101 58.7367V71.8887H243.101V58.7367H237.101ZM240.101 68.8887H198.821V74.8887H240.101V68.8887ZM201.821 71.8887V4.49667H195.821V71.8887H201.821ZM198.821 7.49667H240.101V1.49667H198.821V7.49667ZM237.101 4.49667V17.6487H243.101V4.49667H237.101ZM240.101 14.6487H215.237V20.6487H240.101V14.6487ZM289.927 71.8887L287.299 73.3363L288.154 74.8887H289.927V71.8887ZM275.911 46.4487L278.538 45.001L277.683 43.4487H275.911V46.4487ZM271.975 46.4487V43.4487H268.975V46.4487H271.975ZM271.975 71.8887V74.8887H274.975V71.8887H271.975ZM255.559 71.8887H252.559V74.8887H255.559V71.8887ZM255.559 4.49667V1.49667H252.559V4.49667H255.559ZM296.647 7.28067L295.305 9.96395L295.314 9.96851L295.323 9.97301L296.647 7.28067ZM305.095 14.9607L302.487 16.4436L302.493 16.4547L302.5 16.4658L305.095 14.9607ZM304.039 37.7127L301.612 35.9482L301.602 35.9627L301.591 35.9774L304.039 37.7127ZM292.903 45.2007L292.044 42.3262L288.391 43.4173L290.311 46.7111L292.903 45.2007ZM308.455 71.8887V74.8887H313.675L311.047 70.3782L308.455 71.8887ZM271.975 34.8327H268.975V37.8327H271.975V34.8327ZM288.871 32.6247L286.795 30.4587L286.772 30.4808L286.749 30.5034L288.871 32.6247ZM288.871 20.3367L286.749 22.458L286.772 22.4806L286.795 22.5026L288.871 20.3367ZM271.975 18.1287V15.1287H268.975V18.1287H271.975ZM292.554 70.441L278.538 45.001L273.283 47.8963L287.299 73.3363L292.554 70.441ZM275.911 43.4487H271.975V49.4487H275.911V43.4487ZM268.975 46.4487V71.8887H274.975V46.4487H268.975ZM271.975 68.8887H255.559V74.8887H271.975V68.8887ZM258.559 71.8887V4.49667H252.559V71.8887H258.559ZM255.559 7.49667H283.111V1.49667H255.559V7.49667ZM283.111 7.49667C288.083 7.49667 292.11 8.36622 295.305 9.96395L297.988 4.59739C293.76 2.48312 288.762 1.49667 283.111 1.49667V7.49667ZM295.323 9.97301C298.627 11.5969 300.963 13.7642 302.487 16.4436L307.702 13.4778C305.514 9.62916 302.218 6.6764 297.97 4.58832L295.323 9.97301ZM302.5 16.4658C304.071 19.1754 304.879 22.2336 304.879 25.7127H310.879C310.879 21.2558 309.83 17.146 307.69 13.4555L302.5 16.4658ZM304.879 25.7127C304.879 29.5785 303.788 32.9568 301.612 35.9482L306.465 39.4772C309.409 35.4286 310.879 30.8068 310.879 25.7127H304.879ZM301.591 35.9774C299.553 38.8514 296.458 41.0078 292.044 42.3262L293.761 48.0752C299.204 46.4496 303.532 43.6139 306.486 39.448L301.591 35.9774ZM290.311 46.7111L305.863 73.3991L311.047 70.3782L295.495 43.6902L290.311 46.7111ZM308.455 68.8887H289.927V74.8887H308.455V68.8887ZM271.975 37.8327H282.151V31.8327H271.975V37.8327ZM282.151 37.8327C285.599 37.8327 288.748 36.9898 290.992 34.746L286.749 30.5034C286.049 31.2035 284.718 31.8327 282.151 31.8327V37.8327ZM290.946 34.7906C293.219 32.6122 294.175 29.6621 294.175 26.3847H288.175C288.175 28.4832 287.594 29.6931 286.795 30.4587L290.946 34.7906ZM294.175 26.3847C294.175 23.1859 293.191 20.3215 290.946 18.1707L286.795 22.5026C287.623 23.2959 288.175 24.4635 288.175 26.3847H294.175ZM290.992 18.2154C288.748 15.9715 285.599 15.1287 282.151 15.1287V21.1287C284.718 21.1287 286.049 21.7578 286.749 22.458L290.992 18.2154ZM282.151 15.1287H271.975V21.1287H282.151V15.1287ZM268.975 18.1287V34.8327H274.975V18.1287H268.975ZM339.4 4.49667H342.4V1.49667H339.4V4.49667ZM339.4 71.8887V74.8887H342.4V71.8887H339.4ZM322.984 71.8887H319.984V74.8887H322.984V71.8887ZM322.984 4.49667V1.49667H319.984V4.49667H322.984ZM336.4 4.49667V71.8887H342.4V4.49667H336.4ZM339.4 68.8887H322.984V74.8887H339.4V68.8887ZM325.984 71.8887V4.49667H319.984V71.8887H325.984ZM322.984 7.49667H339.4V1.49667H322.984V7.49667ZM372.512 17.6487V14.6487H369.512V17.6487H372.512ZM372.512 31.2807H369.512V34.2807H372.512V31.2807ZM394.496 31.2807H397.496V28.2807H394.496V31.2807ZM394.496 43.9527V46.9527H397.496V43.9527H394.496ZM372.512 43.9527V40.9527H369.512V43.9527H372.512ZM372.512 58.7367H369.512V61.7367H372.512V58.7367ZM397.376 58.7367H400.376V55.7367H397.376V58.7367ZM397.376 71.8887V74.8887H400.376V71.8887H397.376ZM356.096 71.8887H353.096V74.8887H356.096V71.8887ZM356.096 4.49667V1.49667H353.096V4.49667H356.096ZM397.376 4.49667H400.376V1.49667H397.376V4.49667ZM397.376 17.6487V20.6487H400.376V17.6487H397.376ZM369.512 17.6487V31.2807H375.512V17.6487H369.512ZM372.512 34.2807H394.496V28.2807H372.512V34.2807ZM391.496 31.2807V43.9527H397.496V31.2807H391.496ZM394.496 40.9527H372.512V46.9527H394.496V40.9527ZM369.512 43.9527V58.7367H375.512V43.9527H369.512ZM372.512 61.7367H397.376V55.7367H372.512V61.7367ZM394.376 58.7367V71.8887H400.376V58.7367H394.376ZM397.376 68.8887H356.096V74.8887H397.376V68.8887ZM359.096 71.8887V4.49667H353.096V71.8887H359.096ZM356.096 7.49667H397.376V1.49667H356.096V7.49667ZM394.376 4.49667V17.6487H400.376V4.49667H394.376ZM397.376 14.6487H372.512V20.6487H397.376V14.6487ZM473.122 71.8887V74.8887H476.122V71.8887H473.122ZM456.706 71.8887L454.202 73.5421L455.092 74.8887H456.706V71.8887ZM429.25 30.3207L431.753 28.6673L426.25 20.3354V30.3207H429.25ZM429.25 71.8887V74.8887H432.25V71.8887H429.25ZM412.834 71.8887H409.834V74.8887H412.834V71.8887ZM412.834 4.49667V1.49667H409.834V4.49667H412.834ZM429.25 4.49667L431.756 2.84856L430.868 1.49667H429.25V4.49667ZM456.706 46.2567L454.199 47.9048L459.706 56.2804V46.2567H456.706ZM456.706 4.49667V1.49667H453.706V4.49667H456.706ZM473.122 4.49667H476.122V1.49667H473.122V4.49667ZM473.122 68.8887H456.706V74.8887H473.122V68.8887ZM459.209 70.2353L431.753 28.6673L426.746 31.9741L454.202 73.5421L459.209 70.2353ZM426.25 30.3207V71.8887H432.25V30.3207H426.25ZM429.25 68.8887H412.834V74.8887H429.25V68.8887ZM415.834 71.8887V4.49667H409.834V71.8887H415.834ZM412.834 7.49667H429.25V1.49667H412.834V7.49667ZM426.743 6.14478L454.199 47.9048L459.212 44.6086L431.756 2.84856L426.743 6.14478ZM459.706 46.2567V4.49667H453.706V46.2567H459.706ZM456.706 7.49667H473.122V1.49667H456.706V7.49667ZM470.122 4.49667V71.8887H476.122V4.49667H470.122ZM491.357 20.3367L493.98 21.7936L493.983 21.7868L493.987 21.78L491.357 20.3367ZM503.357 8.14467L504.828 10.7594L504.839 10.7534L503.357 8.14467ZM541.469 10.0647L543.256 7.65496L543.256 7.65495L541.469 10.0647ZM552.893 27.3447V30.3447H556.785L555.794 26.5812L552.893 27.3447ZM534.845 27.3447L532.138 28.6369L532.953 30.3447H534.845V27.3447ZM529.085 20.9127L527.532 23.4792L527.546 23.4881L527.561 23.4968L529.085 20.9127ZM508.445 23.9847L510.685 25.9803L510.685 25.9803L508.445 23.9847ZM529.085 55.2807L527.561 52.6966L527.546 52.7053L527.532 52.7142L529.085 55.2807ZM534.845 48.8487V45.8487H532.953L532.138 47.5565L534.845 48.8487ZM552.893 48.8487L555.794 49.6122L556.785 45.8487H552.893V48.8487ZM541.469 66.1287L543.238 68.5513L543.247 68.5449L543.256 68.5384L541.469 66.1287ZM503.357 68.0487L501.862 70.6494L501.881 70.6604L501.9 70.6711L503.357 68.0487ZM491.357 55.8567L493.98 54.3997L493.98 54.3997L491.357 55.8567ZM490.037 38.0967C490.037 31.887 491.376 26.4795 493.98 21.7936L488.735 18.8797C485.578 24.5618 484.037 30.9943 484.037 38.0967H490.037ZM493.987 21.78C496.603 17.0131 500.206 13.3593 504.828 10.7594L501.886 5.52994C496.268 8.69002 491.871 13.1642 488.727 18.8934L493.987 21.78ZM504.839 10.7534C509.529 8.08975 514.866 6.72867 520.925 6.72867V0.728668C513.928 0.728668 507.553 2.31159 501.876 5.53598L504.839 10.7534ZM520.925 6.72867C528.368 6.72867 534.568 8.68212 539.682 12.4744L543.256 7.65495C536.978 2.99922 529.482 0.728668 520.925 0.728668V6.72867ZM539.682 12.4744C544.794 16.2652 548.234 21.4263 549.992 28.1082L555.794 26.5812C553.713 18.671 549.536 12.3122 543.256 7.65496L539.682 12.4744ZM552.893 24.3447H534.845V30.3447H552.893V24.3447ZM537.553 26.0525C535.972 22.7411 533.659 20.1274 530.609 18.3286L527.561 23.4968C529.503 24.6419 531.03 26.3163 532.138 28.6369L537.553 26.0525ZM530.639 18.3462C527.691 16.5619 524.359 15.7047 520.733 15.7047V21.7047C523.38 21.7047 525.616 22.3195 527.532 23.4792L530.639 18.3462ZM520.733 15.7047C514.891 15.7047 509.955 17.7797 506.205 21.9891L510.685 25.9803C513.207 23.1497 516.463 21.7047 520.733 21.7047V15.7047ZM506.205 21.9891C502.466 26.1857 500.741 31.663 500.741 38.0967H506.741C506.741 32.7543 508.152 28.8236 510.685 25.9803L506.205 21.9891ZM500.741 38.0967C500.741 44.5303 502.466 50.0076 506.205 54.2043L510.685 50.2131C508.152 47.3697 506.741 43.439 506.741 38.0967H500.741ZM506.205 54.2043C509.955 58.4137 514.891 60.4887 520.733 60.4887V54.4887C516.463 54.4887 513.207 53.0437 510.685 50.2131L506.205 54.2043ZM520.733 60.4887C524.359 60.4887 527.691 59.6315 530.639 57.8472L527.532 52.7142C525.616 53.8739 523.38 54.4887 520.733 54.4887V60.4887ZM530.609 57.8648C533.659 56.0659 535.972 53.4523 537.553 50.1409L532.138 47.5565C531.03 49.8771 529.503 51.5514 527.561 52.6966L530.609 57.8648ZM534.845 51.8487H552.893V45.8487H534.845V51.8487ZM549.992 48.0852C548.234 54.767 544.794 59.9282 539.682 63.719L543.256 68.5384C549.536 63.8812 553.713 57.5223 555.794 49.6122L549.992 48.0852ZM539.7 63.706C534.585 67.4415 528.378 69.3687 520.925 69.3687V75.3687C529.472 75.3687 536.961 73.1358 543.238 68.5513L539.7 63.706ZM520.925 69.3687C514.854 69.3687 509.509 68.0343 504.814 65.4262L501.9 70.6711C507.574 73.8231 513.94 75.3687 520.925 75.3687V69.3687ZM504.853 65.448C500.207 62.7769 496.596 59.1092 493.98 54.3997L488.735 57.3136C491.878 62.9721 496.267 67.4324 501.862 70.6494L504.853 65.448ZM493.98 54.3997C491.376 49.7138 490.037 44.3063 490.037 38.0967H484.037C484.037 45.199 485.578 51.6315 488.735 57.3136L493.98 54.3997ZM584.162 17.6487V14.6487H581.162V17.6487H584.162ZM584.162 31.2807H581.162V34.2807H584.162V31.2807ZM606.146 31.2807H609.146V28.2807H606.146V31.2807ZM606.146 43.9527V46.9527H609.146V43.9527H606.146ZM584.162 43.9527V40.9527H581.162V43.9527H584.162ZM584.162 58.7367H581.162V61.7367H584.162V58.7367ZM609.026 58.7367H612.026V55.7367H609.026V58.7367ZM609.026 71.8887V74.8887H612.026V71.8887H609.026ZM567.746 71.8887H564.746V74.8887H567.746V71.8887ZM567.746 4.49667V1.49667H564.746V4.49667H567.746ZM609.026 4.49667H612.026V1.49667H609.026V4.49667ZM609.026 17.6487V20.6487H612.026V17.6487H609.026ZM581.162 17.6487V31.2807H587.162V17.6487H581.162ZM584.162 34.2807H606.146V28.2807H584.162V34.2807ZM603.146 31.2807V43.9527H609.146V31.2807H603.146ZM606.146 40.9527H584.162V46.9527H606.146V40.9527ZM581.162 43.9527V58.7367H587.162V43.9527H581.162ZM584.162 61.7367H609.026V55.7367H584.162V61.7367ZM606.026 58.7367V71.8887H612.026V58.7367H606.026ZM609.026 68.8887H567.746V74.8887H609.026V68.8887ZM570.746 71.8887V4.49667H564.746V71.8887H570.746ZM567.746 7.49667H609.026V1.49667H567.746V7.49667ZM606.026 4.49667V17.6487H612.026V4.49667H606.026ZM609.026 14.6487H584.162V20.6487H609.026V14.6487Z" fill="white" mask="url(#path-1-outside-1_529_2)"/>
</svg>
