<svg width="31" height="31" viewBox="0 0 31 31" fill="none" xmlns="http://www.w3.org/2000/svg">
<g clip-path="url(#clip0_370_17)">
<path d="M12.1086 23.0387C12.1086 23.0387 10.9913 23.6888 12.9048 23.9082C15.2232 24.173 16.408 24.1351 18.9622 23.6523C18.9622 23.6523 19.6351 24.073 20.5731 24.4377C14.8452 26.8916 7.61025 24.2954 12.1086 23.0387ZM11.4083 19.8359C11.4083 19.8359 10.1549 20.7638 12.0699 20.9621C14.5466 21.2178 16.502 21.2387 19.8873 20.5871C19.8873 20.5871 20.3544 21.0617 21.0901 21.3209C14.1662 23.3459 6.45431 21.4803 11.4083 19.8359Z" fill="#0074BD"/>
<path d="M17.3082 14.4022C18.7203 16.0276 16.9379 17.4889 16.9379 17.4889C16.9379 17.4889 20.5213 15.6395 18.8759 13.3225C17.3387 11.1627 16.1602 10.09 22.5404 6.38965C22.5404 6.38988 12.5253 8.89043 17.3082 14.4022Z" fill="#EA2D2E"/>
<path d="M24.8834 25.4081C24.8834 25.4081 25.7105 26.0902 23.9722 26.6173C20.667 27.6185 10.213 27.9204 7.30953 26.6573C6.26632 26.2031 8.22335 25.5734 8.83906 25.4405C9.48101 25.3015 9.84757 25.3268 9.84757 25.3268C8.68671 24.5095 2.34452 26.9323 6.62656 27.6272C18.3034 29.52 27.9118 26.7748 24.8834 25.4081ZM12.6465 16.5171C12.6465 16.5171 7.32945 17.7802 10.7637 18.2393C12.2141 18.4334 15.1039 18.3888 17.7976 18.1629C19.9984 17.978 22.2069 17.5831 22.2069 17.5831C22.2069 17.5831 21.4316 17.9156 20.87 18.2986C15.4695 19.7191 5.03937 19.0575 8.04242 17.6053C10.5812 16.3774 12.6465 16.5171 12.6465 16.5171ZM22.1848 21.8484C27.6741 18.9968 25.1359 16.2563 23.3642 16.6254C22.9311 16.7156 22.7368 16.7941 22.7368 16.7941C22.7368 16.7941 22.898 16.5413 23.2055 16.4325C26.7102 15.2009 29.405 20.066 22.0752 21.9931C22.0752 21.9926 22.1593 21.9164 22.1848 21.8484Z" fill="#0074BD"/>
<path d="M18.876 0.414062C18.876 0.414062 21.9153 3.45531 15.9925 8.13039C11.2426 11.8818 14.9094 14.0202 15.9908 16.4645C13.2179 13.963 11.184 11.7606 12.5483 9.71101C14.5517 6.70305 20.102 5.24406 18.876 0.414062Z" fill="#EA2D2E"/>
<path d="M13.186 29.5783C18.4538 29.9151 26.5454 29.3908 26.7369 26.8979C26.7369 26.8979 26.3687 27.8429 22.3829 28.5927C17.8862 29.4393 12.339 29.3406 9.04999 28.7976C9.04999 28.7978 9.72382 29.3556 13.186 29.5783Z" fill="#0074BD"/>
</g>
<defs>
<clipPath id="clip0_370_17">
<rect width="30" height="30" fill="white" transform="translate(0.948364 0.0419922)"/>
</clipPath>
</defs>
</svg>
