<svg width="31" height="31" viewBox="0 0 31 31" fill="none" xmlns="http://www.w3.org/2000/svg">
<g clip-path="url(#clip0_370_2)">
<path d="M15.9484 17.7139C17.424 17.7139 18.6202 16.5176 18.6202 15.042C18.6202 13.5664 17.424 12.3701 15.9484 12.3701C14.4727 12.3701 13.2765 13.5664 13.2765 15.042C13.2765 16.5176 14.4727 17.7139 15.9484 17.7139Z" fill="#61DAFB"/>
<path d="M26.0968 10.6357C25.5812 10.4482 25.0421 10.2607 24.4796 10.0967C24.6202 9.53418 24.7374 8.97168 24.8312 8.43262C25.3234 5.33887 24.7843 3.15918 23.2843 2.31543C22.839 2.05762 22.3468 1.94043 21.7843 1.94043C20.1437 1.94043 18.0577 3.15918 15.9484 5.19824C13.839 3.15918 11.7531 1.94043 10.1124 1.94043C9.54993 1.94043 9.05774 2.05762 8.61243 2.31543C7.11243 3.18262 6.57336 5.3623 7.06555 8.43262C7.1593 8.97168 7.27649 9.53418 7.41711 10.0967C6.85461 10.2607 6.31555 10.4248 5.79993 10.6357C2.87024 11.7607 1.27649 13.3076 1.27649 15.042C1.27649 16.7764 2.89368 18.3232 5.79993 19.4482C6.31555 19.6357 6.85461 19.8232 7.41711 19.9873C7.27649 20.5498 7.1593 21.1123 7.06555 21.6514C6.57336 24.7451 7.11243 26.9248 8.61243 27.7686C9.05774 28.0264 9.54993 28.1436 10.1124 28.1436C11.7765 28.1436 13.8624 26.9248 15.9484 24.8857C18.0577 26.9248 20.1437 28.1436 21.7843 28.1436C22.3468 28.1436 22.839 28.0264 23.2843 27.7686C24.7843 26.9014 25.3234 24.7217 24.8312 21.6514C24.7374 21.1123 24.6202 20.5498 24.4796 19.9873C25.0421 19.8232 25.5812 19.6592 26.0968 19.4482C29.0265 18.3232 30.6202 16.7764 30.6202 15.042C30.6202 13.3076 29.0265 11.7607 26.0968 10.6357ZM22.6281 3.4873C23.589 4.0498 23.9171 5.78418 23.5187 8.24512C23.4484 8.7373 23.3312 9.25293 23.1906 9.79199C21.9718 9.51074 20.6827 9.32324 19.3234 9.20605C18.5265 8.08105 17.7062 7.07324 16.8859 6.15918C18.6202 4.44824 20.3781 3.27637 21.8077 3.27637C22.1124 3.27637 22.3937 3.34668 22.6281 3.4873ZM20.0031 17.3857C19.5812 18.1357 19.089 18.8857 18.5734 19.6357C17.7062 19.7061 16.839 19.7295 15.9484 19.7295C15.0343 19.7295 14.1671 19.7061 13.3234 19.6357C12.8077 18.8857 12.339 18.1357 11.9171 17.3857C11.4718 16.6123 11.0499 15.8154 10.6749 15.042C11.0499 14.2686 11.4718 13.4717 11.9171 12.6982C12.339 11.9482 12.8312 11.1982 13.3468 10.4482C14.214 10.3779 15.0812 10.3545 15.9718 10.3545C16.8859 10.3545 17.7531 10.3779 18.5968 10.4482C19.1124 11.1982 19.5812 11.9482 20.0031 12.6982C20.4484 13.4717 20.8702 14.2686 21.2452 15.042C20.8468 15.8154 20.4484 16.5889 20.0031 17.3857ZM21.9484 16.6123C22.2999 17.4326 22.5812 18.2295 22.839 19.0264C22.0421 19.2139 21.1984 19.3545 20.3077 19.4717C20.589 19.0264 20.8937 18.5576 21.1515 18.0654C21.4327 17.5732 21.6906 17.0811 21.9484 16.6123ZM15.9484 22.9639C15.3859 22.3545 14.8468 21.6982 14.3312 21.0186C14.8702 21.042 15.4093 21.0654 15.9484 21.0654C16.4874 21.0654 17.0265 21.042 17.5656 21.0186C17.0499 21.6982 16.5109 22.3545 15.9484 22.9639ZM11.589 19.4482C10.6984 19.3311 9.85461 19.1904 9.05774 19.0029C9.31555 18.2295 9.5968 17.4092 9.94836 16.5889C10.2062 17.0576 10.464 17.5498 10.7452 18.0186C11.0265 18.5342 11.3077 18.9795 11.589 19.4482ZM9.94836 13.4717C9.5968 12.6514 9.31555 11.8545 9.05774 11.0576C9.85461 10.8701 10.6984 10.7295 11.589 10.6123C11.3077 11.0576 11.0031 11.5264 10.7452 12.0186C10.464 12.5107 10.2062 13.0029 9.94836 13.4717ZM15.9484 7.12012C16.5109 7.72949 17.0499 8.38574 17.5656 9.06543C17.0265 9.04199 16.4874 9.01855 15.9484 9.01855C15.4093 9.01855 14.8702 9.04199 14.3312 9.06543C14.8468 8.38574 15.3859 7.72949 15.9484 7.12012ZM21.1515 12.042L20.3077 10.6357C21.1984 10.7529 22.0421 10.8936 22.839 11.0811C22.5812 11.8545 22.2999 12.6748 21.9484 13.4951C21.6906 13.0029 21.4327 12.5107 21.1515 12.042ZM8.37805 8.24512C7.97961 5.78418 8.30774 4.0498 9.26868 3.4873C9.50305 3.34668 9.7843 3.27637 10.089 3.27637C11.4952 3.27637 13.2531 4.4248 15.0109 6.15918C14.1906 7.0498 13.3702 8.08105 12.5734 9.20605C11.214 9.32324 9.92493 9.53418 8.70618 9.79199C8.56555 9.25293 8.4718 8.7373 8.37805 8.24512ZM2.58899 15.042C2.58899 13.9404 3.92493 12.7686 6.26868 11.9014C6.73743 11.7139 7.25305 11.5498 7.76868 11.4092C8.14368 12.5811 8.61243 13.8232 9.17493 15.0654C8.61243 16.3076 8.12024 17.5264 7.76868 18.6982C4.5343 17.7607 2.58899 16.3545 2.58899 15.042ZM9.26868 26.5967C8.30774 26.0342 7.97961 24.2998 8.37805 21.8389C8.44836 21.3467 8.56555 20.8311 8.70618 20.292C9.92493 20.5732 11.214 20.7607 12.5734 20.8779C13.3702 22.0029 14.1906 23.0107 15.0109 23.9248C13.2765 25.6357 11.5187 26.8076 10.089 26.8076C9.7843 26.8076 9.50305 26.7373 9.26868 26.5967ZM23.5187 21.8389C23.9171 24.2998 23.589 26.0342 22.6281 26.5967C22.3937 26.7373 22.1124 26.8076 21.8077 26.8076C20.4015 26.8076 18.6437 25.6592 16.8859 23.9248C17.7062 23.0342 18.5265 22.0029 19.3234 20.8779C20.6827 20.7607 21.9718 20.5498 23.1906 20.292C23.3312 20.8311 23.4249 21.3467 23.5187 21.8389ZM25.6281 18.1826C25.1593 18.3701 24.6437 18.5342 24.1281 18.6748C23.7531 17.5029 23.2843 16.2607 22.7218 15.0186C23.2843 13.7764 23.7765 12.5576 24.1281 11.3857C27.3624 12.3232 29.3077 13.7295 29.3077 15.042C29.3077 16.1436 27.9484 17.3154 25.6281 18.1826Z" fill="#61DAFB"/>
</g>
<defs>
<clipPath id="clip0_370_2">
<rect width="30" height="30" fill="white" transform="translate(0.948364 0.0419922)"/>
</clipPath>
</defs>
</svg>
